<svg height="480pt" viewBox="-4 0 480 480" width="480pt" xmlns="http://www.w3.org/2000/svg" xmlns:xlink="http://www.w3.org/1999/xlink"><linearGradient id="a"><stop offset="0" stop-color="#e93e3a"/><stop offset=".36" stop-color="#ed683c"/><stop offset=".716" stop-color="#f3903f"/><stop offset="1" stop-color="#fdc70c"/></linearGradient><linearGradient id="b" gradientUnits="userSpaceOnUse" x1="87.8" x2="80.76" xlink:href="#a" y1="481.736" y2="-9.52"/><linearGradient id="c" gradientUnits="userSpaceOnUse" x1="209.864" x2="202.816" xlink:href="#a" y1="479.984" y2="-11.272"/><linearGradient id="d" gradientTransform="matrix(8.002727 .00160601 -.00160601 8.002727 -15.994126 -15.99887)" gradientUnits="userSpaceOnUse" x1="20.604" x2="19.723" xlink:href="#a" y1="62.107" y2=".701"/><linearGradient id="e" gradientUnits="userSpaceOnUse" x1="150.32" x2="143.28" xlink:href="#a" y1="480.84" y2="-10.416"/><linearGradient id="f" gradientUnits="userSpaceOnUse" x1="76.357544" x2="69.317544" xlink:href="#a" y1="481.894983" y2="-9.353017"/><linearGradient id="g" gradientUnits="userSpaceOnUse" x1="44.856" x2="37.808" xlink:href="#a" y1="482.352" y2="-8.904"/><linearGradient id="h" gradientUnits="userSpaceOnUse" x1="74.25481" x2="67.20681" xlink:href="#a" y1="481.922038" y2="-9.325962"/><linearGradient id="i" gradientUnits="userSpaceOnUse" x1="147.344" x2="140.296" xlink:href="#a" y1="480.88" y2="-10.376"/><linearGradient id="j" gradientUnits="userSpaceOnUse" x1="221.300208" x2="214.252208" xlink:href="#a" y1="479.822429" y2="-11.433571"/><linearGradient id="k" gradientUnits="userSpaceOnUse" x1="252.808" x2="245.76" xlink:href="#a" y1="479.368" y2="-11.888"/><linearGradient id="l" gradientUnits="userSpaceOnUse" x1="223.402942" x2="216.354942" xlink:href="#a" y1="479.795374" y2="-11.460626"/><linearGradient id="m" gradientUnits="userSpaceOnUse" x1="192.464" x2="185.416" xlink:href="#a" y1="480.232" y2="-11.016"/><linearGradient id="n" gradientUnits="userSpaceOnUse" x1="336.608" x2="329.56" xlink:href="#a" y1="478.168" y2="-13.088"/><linearGradient id="o" gradientUnits="userSpaceOnUse" x1="48.488" x2="41.448" xlink:href="#a" y1="482.296" y2="-8.952"/><linearGradient id="p" gradientUnits="userSpaceOnUse" x1="48.952" x2="41.904" xlink:href="#a" y1="482.296" y2="-8.96"/><linearGradient id="q" gradientUnits="userSpaceOnUse" x1="80.944" x2="73.896" xlink:href="#a" y1="481.832" y2="-9.416"/><linearGradient id="r" gradientUnits="userSpaceOnUse" x1="112.936" x2="105.888" xlink:href="#a" y1="481.376" y2="-9.88"/><linearGradient id="s" gradientUnits="userSpaceOnUse" x1="144.928" x2="137.888" xlink:href="#a" y1="480.912" y2="-10.336"/><linearGradient id="t" gradientUnits="userSpaceOnUse" x1="176.928" x2="169.88" xlink:href="#a" y1="480.456" y2="-10.8"/><linearGradient id="u" gradientUnits="userSpaceOnUse" x1="208.92" x2="201.872" xlink:href="#a" y1="480" y2="-11.256"/><linearGradient id="v" gradientUnits="userSpaceOnUse" x1="240.912" x2="233.864" xlink:href="#a" y1="479.536" y2="-11.712"/><linearGradient id="w" gradientUnits="userSpaceOnUse" x1="272.904" x2="265.856" xlink:href="#a" y1="479.08" y2="-12.176"/><linearGradient id="x" gradientUnits="userSpaceOnUse" x1="304.896" x2="297.848" xlink:href="#a" y1="478.624" y2="-12.632"/><linearGradient id="y" gradientUnits="userSpaceOnUse" x1="49.408" x2="42.36" xlink:href="#a" y1="482.288" y2="-8.968"/><linearGradient id="z" gradientUnits="userSpaceOnUse" x1="81.4" x2="74.36" xlink:href="#a" y1="481.824" y2="-9.424"/><linearGradient id="A" gradientUnits="userSpaceOnUse" x1="113.4" x2="106.352" xlink:href="#a" y1="481.368" y2="-9.888"/><linearGradient id="B" gradientUnits="userSpaceOnUse" x1="145.392" x2="138.344" xlink:href="#a" y1="480.912" y2="-10.344"/><linearGradient id="C" gradientUnits="userSpaceOnUse" x1="177.384" x2="170.336" xlink:href="#a" y1="480.448" y2="-10.8"/><linearGradient id="D" gradientUnits="userSpaceOnUse" x1="209.376" x2="202.328" xlink:href="#a" y1="479.992" y2="-11.264"/><linearGradient id="E" gradientUnits="userSpaceOnUse" x1="241.368" x2="234.32" xlink:href="#a" y1="479.536" y2="-11.72"/><linearGradient id="F" gradientUnits="userSpaceOnUse" x1="273.36" x2="266.32" xlink:href="#a" y1="479.072" y2="-12.176"/><linearGradient id="G" gradientUnits="userSpaceOnUse" x1="305.36" x2="298.312" xlink:href="#a" y1="478.616" y2="-12.64"/><linearGradient id="H" gradientUnits="userSpaceOnUse" x1="238.344" x2="231.304" xlink:href="#a" y1="479.576" y2="-11.68"/><path d="m90.34375 114.34375-24 24c-3.121094 3.125-3.121094 8.1875 0 11.3125l24 24 11.3125-11.3125-18.34375-18.34375 18.34375-18.34375zm0 0" fill="url(#b)"/><path d="m221.65625 138.34375-24-24-11.3125 11.3125 18.34375 18.34375-18.34375 18.34375 11.3125 11.3125 24-24c3.121094-3.125 3.121094-8.1875 0-11.3125zm0 0" fill="url(#c)"/><path d="m120.589844 181.035156 31.96875-80.007812 14.859375 5.9375-31.972657 80.007812zm0 0" fill="url(#d)"/><path d="m136 32h16v16h-16zm0 0" fill="url(#e)"/><path d="m59.148438 70.464844 11.3125-11.316406 11.316406 11.316406-11.316406 11.3125zm0 0" fill="url(#f)"/><path d="m32 136h16v16h-16zm0 0" fill="url(#g)"/><path d="m59.144531 217.53125 11.3125-11.3125 11.316407 11.3125-11.316407 11.3125zm0 0" fill="url(#h)"/><path d="m136 240h16v16h-16zm0 0" fill="url(#i)"/><path d="m206.21875 217.535156 11.316406-11.3125 11.3125 11.3125-11.3125 11.316406zm0 0" fill="url(#j)"/><path d="m240 136h16v16h-16zm0 0" fill="url(#k)"/><path d="m206.222656 70.46875 11.316406-11.3125 11.3125 11.3125-11.3125 11.3125zm0 0" fill="url(#l)"/><path d="m80 440h224v16h-224zm0 0" fill="url(#m)"/><path d="m336 440h-16v16h24c4.417969 0 8-3.582031 8-8v-32h-16zm0 0" fill="url(#n)"/><path d="m32 440h32v16h-32zm0 0" fill="url(#o)"/><path d="m40 408h16v16h-16zm0 0" fill="url(#p)"/><path d="m72 408h16v16h-16zm0 0" fill="url(#q)"/><path d="m104 408h16v16h-16zm0 0" fill="url(#r)"/><path d="m136 408h16v16h-16zm0 0" fill="url(#s)"/><path d="m168 408h16v16h-16zm0 0" fill="url(#t)"/><path d="m200 408h16v16h-16zm0 0" fill="url(#u)"/><path d="m232 408h16v16h-16zm0 0" fill="url(#v)"/><path d="m264 408h16v16h-16zm0 0" fill="url(#w)"/><path d="m296 408h16v16h-16zm0 0" fill="url(#x)"/><path d="m40 376h16v16h-16zm0 0" fill="url(#y)"/><path d="m72 376h16v16h-16zm0 0" fill="url(#z)"/><path d="m104 376h16v16h-16zm0 0" fill="url(#A)"/><path d="m136 376h16v16h-16zm0 0" fill="url(#B)"/><path d="m168 376h16v16h-16zm0 0" fill="url(#C)"/><path d="m200 376h16v16h-16zm0 0" fill="url(#D)"/><path d="m232 376h16v16h-16zm0 0" fill="url(#E)"/><path d="m264 376h16v16h-16zm0 0" fill="url(#F)"/><path d="m296 376h16v16h-16zm0 0" fill="url(#G)"/><path d="m416 264h-64c-13.253906 0-24-10.746094-24-24s10.746094-24 24-24h80c22.089844 0 40-17.910156 40-40s-17.910156-40-40-40h-144v-16c0-3.980469-2.925781-7.355469-6.863281-7.921875l-31.257813-4.460937c-1.484375-4.371094-3.238281-8.648438-5.253906-12.800782l18.910156-25.214844c2.386719-3.183593 2.074219-7.632812-.734375-10.449218l-33.953125-33.953125c-2.816406-2.808594-7.265625-3.121094-10.449218-.734375l-25.230469 18.910156c-4.152344-2.015625-8.429688-3.769531-12.800781-5.253906l-4.445313-31.257813c-.566406-3.9375-3.941406-6.863281-7.921875-6.863281h-48c-3.980469 0-7.355469 2.925781-7.921875 6.863281l-4.460937 31.257813c-4.371094 1.484375-8.648438 3.238281-12.800782 5.253906l-25.214844-18.910156c-3.183593-2.386719-7.632812-2.074219-10.449218.734375l-33.953125 33.953125c-2.808594 2.816406-3.121094 7.265625-.734375 10.449218l18.910156 25.230469c-2.015625 4.152344-3.769531 8.429688-5.253906 12.800781l-31.257813 4.464844c-3.933593.5625-6.8554685 3.929688-6.863281 7.902344v48c0 3.980469 2.925781 7.355469 6.863281 7.921875l31.257813 4.460937c1.484375 4.371094 3.238281 8.648438 5.253906 12.800782l-18.910156 25.214844c-2.386719 3.183593-2.074219 7.632812.734375 10.449218l33.953125 33.953125c2.816406 2.808594 7.265625 3.121094 10.449218.734375l25.222657-18.910156c4.152343 2.015625 8.429687 3.769531 12.800781 5.253906l4.464844 31.257813c.5625 3.9375 3.933594 6.859375 7.910156 6.863281h48c3.980469 0 7.355469-2.925781 7.921875-6.863281l4.460937-31.257813c4.371094-1.484375 8.648438-3.238281 12.800782-5.253906l25.214844 18.910156c3.183593 2.386719 7.632812 2.074219 10.449218-.734375l33.953125-33.953125c2.808594-2.816406 3.121094-7.265625.734375-10.449218l-18.910156-25.222657c2.015625-4.152343 3.769531-8.429687 5.253906-12.800781l31.257813-4.464844c3.9375-.5625 6.859375-3.933594 6.863281-7.910156v-16h144c13.253906 0 24 10.746094 24 24s-10.746094 24-24 24h-80c-22.089844 0-40 17.910156-40 40s17.910156 40 40 40h64c22.082031.027344 39.972656 17.917969 40 40v24c-.027344 22.082031-17.917969 39.972656-40 40h-8v-8c0-4.417969-3.582031-8-8-8h-16c0-13.253906-10.746094-24-24-24h-336c-13.253906 0-24 10.746094-24 24v88c0 13.253906 10.746094 24 24 24h336c13.253906 0 24-10.746094 24-24v-40h16c4.417969 0 8-3.582031 8-8v-8h8c30.910156-.039062 55.960938-25.089844 56-56v-24c-.039062-30.910156-25.089844-55.960938-56-56zm-144-102.9375-29.359375 4.183594c-3.105469.449218-5.667969 2.667968-6.542969 5.683594-1.925781 6.667968-4.574218 13.105468-7.898437 19.199218-1.507813 2.753906-1.269531 6.136719.617187 8.648438l17.757813 23.6875-24.125 24.128906-23.6875-17.792969c-2.511719-1.886719-5.894531-2.125-8.648438-.617187-6.09375 3.324218-12.53125 5.972656-19.203125 7.894531-3.011718.878906-5.230468 3.4375-5.679687 6.546875l-4.167969 29.375h-34.125l-4.183594-29.359375c-.449218-3.105469-2.667968-5.667969-5.683594-6.542969-6.667968-1.925781-13.105468-4.574218-19.199218-7.898437-2.753906-1.507813-6.136719-1.269531-8.648438.617187l-23.6875 17.757813-24.109375-24.125 17.773438-23.6875c1.886719-2.511719 2.125-5.894531.617187-8.648438-3.324218-6.09375-5.972656-12.53125-7.894531-19.203125-.878906-3.011718-3.4375-5.230468-6.546875-5.679687l-29.375-4.167969v-34.125l29.359375-4.183594c3.105469-.449218 5.667969-2.667968 6.542969-5.683594 1.925781-6.667968 4.574218-13.109374 7.90625-19.199218 1.503906-2.746094 1.265625-6.121094-.609375-8.632813l-17.757813-23.6875 24.125-24.125 23.671875 17.773438c2.511719 1.886719 5.894531 2.132812 8.648438.625 6.09375-3.332031 12.53125-5.980469 19.203125-7.902344 3.011718-.878906 5.230468-3.4375 5.679687-6.546875l4.167969-29.375h34.125l4.183594 29.359375c.449218 3.105469 2.667968 5.667969 5.683594 6.542969 6.667968 1.925781 13.109374 4.574218 19.199218 7.90625 2.746094 1.503906 6.121094 1.265625 8.632813-.609375l23.6875-17.757813 24.125 24.125-17.773438 23.671875c-1.886719 2.511719-2.132812 5.894531-.625 8.648438 3.332031 6.09375 5.980469 12.53125 7.902344 19.203125.878906 3.011718 3.4375 5.230468 6.546875 5.679687l29.359375 4.183594zm96 294.9375c0 4.417969-3.582031 8-8 8h-336c-4.417969 0-8-3.582031-8-8v-88c0-4.417969 3.582031-8 8-8h336c4.417969 0 8 3.582031 8 8zm24-56h-8v-16h8zm0 0" fill="url(#H)"/></svg>